solid cube_0.1m
facet normal 0.000000 0.000000 -1.000000
outer loop
vertex -0.050000 -0.050000 -0.050000
vertex -0.050000 0.050000 -0.050000
vertex 0.050000 -0.050000 -0.050000
endloop
endfacet
facet normal 0.000000 0.000000 -1.000000
outer loop
vertex 0.050000 -0.050000 -0.050000
vertex -0.050000 0.050000 -0.050000
vertex 0.050000 0.050000 -0.050000
endloop
endfacet
facet normal 0.000000 0.000000 1.000000
outer loop
vertex -0.050000 -0.050000 0.050000
vertex 0.050000 -0.050000 0.050000
vertex -0.050000 0.050000 0.050000
endloop
endfacet
facet normal 0.000000 -0.000000 1.000000
outer loop
vertex 0.050000 -0.050000 0.050000
vertex 0.050000 0.050000 0.050000
vertex -0.050000 0.050000 0.050000
endloop
endfacet
facet normal 0.000000 -1.000000 0.000000
outer loop
vertex -0.050000 -0.050000 -0.050000
vertex 0.050000 -0.050000 -0.050000
vertex 0.050000 -0.050000 0.050000
endloop
endfacet
facet normal 0.000000 -1.000000 0.000000
outer loop
vertex -0.050000 -0.050000 -0.050000
vertex 0.050000 -0.050000 0.050000
vertex -0.050000 -0.050000 0.050000
endloop
endfacet
facet normal 1.000000 0.000000 0.000000
outer loop
vertex 0.050000 -0.050000 -0.050000
vertex 0.050000 0.050000 -0.050000
vertex 0.050000 0.050000 0.050000
endloop
endfacet
facet normal 1.000000 0.000000 0.000000
outer loop
vertex 0.050000 -0.050000 -0.050000
vertex 0.050000 0.050000 0.050000
vertex 0.050000 -0.050000 0.050000
endloop
endfacet
facet normal 0.000000 1.000000 0.000000
outer loop
vertex 0.050000 0.050000 -0.050000
vertex -0.050000 0.050000 -0.050000
vertex -0.050000 0.050000 0.050000
endloop
endfacet
facet normal 0.000000 1.000000 -0.000000
outer loop
vertex 0.050000 0.050000 -0.050000
vertex -0.050000 0.050000 0.050000
vertex 0.050000 0.050000 0.050000
endloop
endfacet
facet normal -1.000000 0.000000 0.000000
outer loop
vertex -0.050000 0.050000 -0.050000
vertex -0.050000 -0.050000 -0.050000
vertex -0.050000 -0.050000 0.050000
endloop
endfacet
facet normal -1.000000 0.000000 0.000000
outer loop
vertex -0.050000 0.050000 -0.050000
vertex -0.050000 -0.050000 0.050000
vertex -0.050000 0.050000 0.050000
endloop
endfacet
endsolid cube_0.1m
