solid cube_2.0mm
facet normal 0.000000 0.000000 -1.000000
outer loop
vertex -0.001000 -0.001000 -0.001000
vertex -0.001000 0.001000 -0.001000
vertex 0.001000 -0.001000 -0.001000
endloop
endfacet
facet normal 0.000000 0.000000 -1.000000
outer loop
vertex 0.001000 -0.001000 -0.001000
vertex -0.001000 0.001000 -0.001000
vertex 0.001000 0.001000 -0.001000
endloop
endfacet
facet normal 0.000000 0.000000 1.000000
outer loop
vertex -0.001000 -0.001000 0.001000
vertex 0.001000 -0.001000 0.001000
vertex -0.001000 0.001000 0.001000
endloop
endfacet
facet normal 0.000000 -0.000000 1.000000
outer loop
vertex 0.001000 -0.001000 0.001000
vertex 0.001000 0.001000 0.001000
vertex -0.001000 0.001000 0.001000
endloop
endfacet
facet normal 0.000000 -1.000000 0.000000
outer loop
vertex -0.001000 -0.001000 -0.001000
vertex 0.001000 -0.001000 -0.001000
vertex 0.001000 -0.001000 0.001000
endloop
endfacet
facet normal 0.000000 -1.000000 0.000000
outer loop
vertex -0.001000 -0.001000 -0.001000
vertex 0.001000 -0.001000 0.001000
vertex -0.001000 -0.001000 0.001000
endloop
endfacet
facet normal 1.000000 0.000000 0.000000
outer loop
vertex 0.001000 -0.001000 -0.001000
vertex 0.001000 0.001000 -0.001000
vertex 0.001000 0.001000 0.001000
endloop
endfacet
facet normal 1.000000 0.000000 0.000000
outer loop
vertex 0.001000 -0.001000 -0.001000
vertex 0.001000 0.001000 0.001000
vertex 0.001000 -0.001000 0.001000
endloop
endfacet
facet normal 0.000000 1.000000 0.000000
outer loop
vertex 0.001000 0.001000 -0.001000
vertex -0.001000 0.001000 -0.001000
vertex -0.001000 0.001000 0.001000
endloop
endfacet
facet normal 0.000000 1.000000 -0.000000
outer loop
vertex 0.001000 0.001000 -0.001000
vertex -0.001000 0.001000 0.001000
vertex 0.001000 0.001000 0.001000
endloop
endfacet
facet normal -1.000000 0.000000 0.000000
outer loop
vertex -0.001000 0.001000 -0.001000
vertex -0.001000 -0.001000 -0.001000
vertex -0.001000 -0.001000 0.001000
endloop
endfacet
facet normal -1.000000 0.000000 0.000000
outer loop
vertex -0.001000 0.001000 -0.001000
vertex -0.001000 -0.001000 0.001000
vertex -0.001000 0.001000 0.001000
endloop
endfacet
endsolid cube_2.0mm
