solid cube_3.0mm
facet normal 0.000000 0.000000 -1.000000
outer loop
vertex -0.001500 -0.001500 -0.001500
vertex -0.001500 0.001500 -0.001500
vertex 0.001500 -0.001500 -0.001500
endloop
endfacet
facet normal 0.000000 0.000000 -1.000000
outer loop
vertex 0.001500 -0.001500 -0.001500
vertex -0.001500 0.001500 -0.001500
vertex 0.001500 0.001500 -0.001500
endloop
endfacet
facet normal 0.000000 0.000000 1.000000
outer loop
vertex -0.001500 -0.001500 0.001500
vertex 0.001500 -0.001500 0.001500
vertex -0.001500 0.001500 0.001500
endloop
endfacet
facet normal 0.000000 -0.000000 1.000000
outer loop
vertex 0.001500 -0.001500 0.001500
vertex 0.001500 0.001500 0.001500
vertex -0.001500 0.001500 0.001500
endloop
endfacet
facet normal 0.000000 -1.000000 0.000000
outer loop
vertex -0.001500 -0.001500 -0.001500
vertex 0.001500 -0.001500 -0.001500
vertex 0.001500 -0.001500 0.001500
endloop
endfacet
facet normal 0.000000 -1.000000 0.000000
outer loop
vertex -0.001500 -0.001500 -0.001500
vertex 0.001500 -0.001500 0.001500
vertex -0.001500 -0.001500 0.001500
endloop
endfacet
facet normal 1.000000 0.000000 0.000000
outer loop
vertex 0.001500 -0.001500 -0.001500
vertex 0.001500 0.001500 -0.001500
vertex 0.001500 0.001500 0.001500
endloop
endfacet
facet normal 1.000000 0.000000 0.000000
outer loop
vertex 0.001500 -0.001500 -0.001500
vertex 0.001500 0.001500 0.001500
vertex 0.001500 -0.001500 0.001500
endloop
endfacet
facet normal 0.000000 1.000000 0.000000
outer loop
vertex 0.001500 0.001500 -0.001500
vertex -0.001500 0.001500 -0.001500
vertex -0.001500 0.001500 0.001500
endloop
endfacet
facet normal 0.000000 1.000000 -0.000000
outer loop
vertex 0.001500 0.001500 -0.001500
vertex -0.001500 0.001500 0.001500
vertex 0.001500 0.001500 0.001500
endloop
endfacet
facet normal -1.000000 0.000000 0.000000
outer loop
vertex -0.001500 0.001500 -0.001500
vertex -0.001500 -0.001500 -0.001500
vertex -0.001500 -0.001500 0.001500
endloop
endfacet
facet normal -1.000000 0.000000 0.000000
outer loop
vertex -0.001500 0.001500 -0.001500
vertex -0.001500 -0.001500 0.001500
vertex -0.001500 0.001500 0.001500
endloop
endfacet
endsolid cube_3.0mm
