solid particle
 facet normal 0 0 1
  outer loop
   vertex 0.49576 -0.002597 0.045
   vertex 0.50576 -0.002597 0.045
   vertex 0.50576 0.007403 0.045
  endloop
 endfacet
 facet normal 0 0 1
  outer loop
   vertex 0.49576 -0.002597 0.045
   vertex 0.50576 0.007403 0.045
   vertex 0.49576 0.007403 0.045
  endloop
 endfacet
 facet normal 0 0 -1
  outer loop
   vertex 0.49576 -0.002597 0.055
   vertex 0.50576 0.007403 0.055
   vertex 0.50576 -0.002597 0.055
  endloop
 endfacet
 facet normal 0 0 -1
  outer loop
   vertex 0.49576 -0.002597 0.055
   vertex 0.49576 0.007403 0.055
   vertex 0.50576 0.007403 0.055
  endloop
 endfacet
 facet normal 0 -1 0
  outer loop
   vertex 0.49576 -0.002597 0.045
   vertex 0.50576 -0.002597 0.055
   vertex 0.49576 -0.002597 0.055
  endloop
 endfacet
 facet normal 0 -1 0
  outer loop
   vertex 0.49576 -0.002597 0.045
   vertex 0.50576 -0.002597 0.045
   vertex 0.50576 -0.002597 0.055
  endloop
 endfacet
 facet normal 0 1 0
  outer loop
   vertex 0.49576 0.007403 0.045
   vertex 0.49576 0.007403 0.055
   vertex 0.50576 0.007403 0.055
  endloop
 endfacet
 facet normal 0 1 0
  outer loop
   vertex 0.49576 0.007403 0.045
   vertex 0.50576 0.007403 0.055
   vertex 0.50576 0.007403 0.045
  endloop
 endfacet
 facet normal -1 0 0
  outer loop
   vertex 0.49576 -0.002597 0.045
   vertex 0.49576 -0.002597 0.055
   vertex 0.49576 0.007403 0.055
  endloop
 endfacet
 facet normal -1 0 0
  outer loop
   vertex 0.49576 -0.002597 0.045
   vertex 0.49576 0.007403 0.055
   vertex 0.49576 0.007403 0.045
  endloop
 endfacet
 facet normal 1 0 0
  outer loop
   vertex 0.50576 -0.002597 0.045
   vertex 0.50576 0.007403 0.045
   vertex 0.50576 0.007403 0.055
  endloop
 endfacet
 facet normal 1 0 0
  outer loop
   vertex 0.50576 -0.002597 0.045
   vertex 0.50576 0.007403 0.055
   vertex 0.50576 -0.002597 0.055
  endloop
 endfacet
endsolid particle
